<svg width="32" height="32" viewBox="0 0 32 32" xmlns="http://www.w3.org/2000/svg">
  <defs>
    <filter id="shadow" x="-50%" y="-50%" width="200%" height="200%">
      <feDropShadow dx="1" dy="1" stdDeviation="1" flood-color="#000000" flood-opacity="0.3"/>
    </filter>
  </defs>
  
  <!-- Background circle -->
  <circle cx="16" cy="16" r="14" fill="none" stroke="white" stroke-width="2"/>
  
  <!-- DC Letters -->
  <g transform="translate(16, 16)" filter="url(#shadow)">
    <!-- Letter D -->
    <path d="M-6,-8 L-6,8 L-3,8 Q2,8 2,0 Q2,-8 -3,-8 Z" fill="white"/>
    
    <!-- Letter C -->
    <path d="M3,-8 Q8,-8 8,-3 L6,-3 Q6,-6 3,-6 Z M3,8 Q8,8 8,3 L6,3 Q6,6 3,6 Z M3,-6 L3,6 Q6,6 6,3 L6,-3 Q6,-6 3,-6 Z" fill="white"/>
  </g>
  
  <!-- Blue vertical bar -->
  <rect x="2" y="8" width="4" height="16" fill="#0066CC"/>
  
  <!-- Red plus sign -->
  <g transform="translate(28, 16)">
    <rect x="-2" y="-8" width="4" height="16" fill="#CC0000"/>
    <rect x="-8" y="-2" width="16" height="4" fill="#CC0000"/>
  </g>
  
  <!-- Horizontal lines -->
  <line x1="4" y1="16" x2="12" y2="16" stroke="white" stroke-width="1"/>
  <line x1="20" y1="16" x2="28" y2="16" stroke="white" stroke-width="1"/>
</svg>
