<svg width="200" height="200" viewBox="0 0 200 200" xmlns="http://www.w3.org/2000/svg">
  <!-- Background -->
  <rect width="200" height="200" fill="#000000"/>
  
  <!-- Background circle -->
  <circle cx="100" cy="100" r="80" fill="none" stroke="white" stroke-width="8"/>
  
  <!-- DC Letters -->
  <g transform="translate(100, 100)">
    <!-- Letter D with blue accent -->
    <path d="M-25,-35 L-25,35 L-15,35 Q5,35 5,0 Q5,-35 -15,-35 Z" fill="white"/>
    <!-- Blue accent on D -->
    <rect x="-25" y="-35" width="8" height="70" fill="#0066FF"/>
    
    <!-- Letter C -->
    <path d="M15,-35 Q35,-35 35,-15 L25,-15 Q25,-25 15,-25 Z M15,35 Q35,35 35,15 L25,15 Q25,25 15,25 Z M15,-25 L15,25 Q25,25 25,15 L25,-15 Q25,-25 15,-25 Z" fill="white"/>
  </g>
  
  <!-- Red plus sign -->
  <g transform="translate(170, 100)">
    <rect x="-8" y="-30" width="16" height="60" fill="#FF0000"/>
    <rect x="-30" y="-8" width="60" height="16" fill="#FF0000"/>
  </g>
</svg>
